<?xml version="1.0" encoding="UTF-8" standalone="no"?>
<!DOCTYPE svg PUBLIC "-//W3C//DTD SVG 1.1//EN"
 "http://www.w3.org/Graphics/SVG/1.1/DTD/svg11.dtd">
<!-- Generated by graphviz version 2.40.1 (20161225.0304)
 -->
<!-- Title: %3 Pages: 1 -->
<svg width="928pt" height="1324pt"
 viewBox="0.00 0.00 928.33 1324.00" xmlns="http://www.w3.org/2000/svg" xmlns:xlink="http://www.w3.org/1999/xlink">
<g id="graph0" class="graph" transform="scale(1 1) rotate(0) translate(4 1320)">
<title>%3</title>
<polygon fill="#ffffff" stroke="transparent" points="-4,4 -4,-1320 924.3276,-1320 924.3276,4 -4,4"/>
<g id="clust1" class="cluster">
<title>cluster_netlink</title>
<polygon fill="none" stroke="#000000" points="667.5479,-390 667.5479,-442 912.3276,-442 912.3276,-390 667.5479,-390"/>
</g>
<g id="clust2" class="cluster">
<title>cluster_connector</title>
<polygon fill="none" stroke="#000000" points="354.6724,-1233 354.6724,-1308 647.5479,-1308 647.5479,-1233 354.6724,-1233"/>
<text text-anchor="middle" x="501.1102" y="-1292.8" font-family="Times,serif" font-size="14.00" fill="#000000">NETLINK_CONNECTOR</text>
</g>
<g id="clust4" class="cluster">
<title>cluster_generic</title>
<polygon fill="none" stroke="#000000" points="8,-718 8,-1225 631.2993,-1225 631.2993,-718 8,-718"/>
<text text-anchor="middle" x="319.6497" y="-1209.8" font-family="Times,serif" font-size="14.00" fill="#000000">NETLINK_GENERIC (genetlink)</text>
</g>
<g id="clust6" class="cluster">
<title>cluster_kobject_uevent</title>
<polygon fill="none" stroke="#000000" points="377.4204,-635 377.4204,-710 624.7999,-710 624.7999,-635 377.4204,-635"/>
<text text-anchor="middle" x="501.1102" y="-694.8" font-family="Times,serif" font-size="14.00" fill="#000000">NETLINK_KOBJECT_UEVENT</text>
</g>
<g id="clust8" class="cluster">
<title>cluster_netfilter</title>
<polygon fill="none" stroke="#000000" points="35.2976,-336 35.2976,-627 612.451,-627 612.451,-336 35.2976,-336"/>
<text text-anchor="middle" x="323.8743" y="-611.8" font-family="Times,serif" font-size="14.00" fill="#000000">NETLINK_NETFILTER (nfnetlink)</text>
</g>
<g id="clust11" class="cluster">
<title>cluster_route</title>
<polygon fill="none" stroke="#000000" points="371.5709,-91 371.5709,-328 630.6494,-328 630.6494,-91 371.5709,-91"/>
<text text-anchor="middle" x="501.1102" y="-312.8" font-family="Times,serif" font-size="14.00" fill="#000000">NETLINK_ROUTE (rtnetlink)</text>
</g>
<g id="clust13" class="cluster">
<title>cluster_w1</title>
<polygon fill="none" stroke="#000000" points="365.7215,-8 365.7215,-83 636.4988,-83 636.4988,-8 365.7215,-8"/>
<text text-anchor="middle" x="501.1102" y="-67.8" font-family="Times,serif" font-size="14.00" fill="#000000">NETLINK_W1</text>
</g>
<!-- github.com/mdlayher/netlink -->
<g id="node1" class="node">
<title>github.com/mdlayher/netlink</title>
<g id="a_node1"><a xlink:href="https://github.com/mdlayher/netlink" xlink:title="github.com/mdlayher/netlink">
<ellipse fill="none" stroke="#000000" cx="789.9377" cy="-416" rx="114.2798" ry="18"/>
<text text-anchor="middle" x="789.9377" y="-412.3" font-family="Times,serif" font-size="14.00" fill="#000000">github.com/mdlayher/netlink</text>
</a>
</g>
</g>
<!-- github.com/fearful&#45;symmetry/garlic -->
<g id="node2" class="node">
<title>github.com/fearful&#45;symmetry/garlic</title>
<g id="a_node2"><a xlink:href="https://github.com/fearful-symmetry/garlic" xlink:title="github.com/fearful&#45;symmetry/garlic">
<ellipse fill="none" stroke="#000000" cx="501.1102" cy="-1259" rx="138.3755" ry="18"/>
<text text-anchor="middle" x="501.1102" y="-1255.3" font-family="Times,serif" font-size="14.00" fill="#000000">github.com/fearful&#45;symmetry/garlic</text>
</a>
</g>
</g>
<!-- github.com/fearful&#45;symmetry/garlic&#45;&gt;github.com/mdlayher/netlink -->
<g id="edge1" class="edge">
<title>github.com/fearful&#45;symmetry/garlic&#45;&gt;github.com/mdlayher/netlink</title>
<path fill="none" stroke="#000000" d="M617.5562,-1249.1533C628.733,-1244.2941 639.0478,-1237.7475 647.5479,-1229 759.6205,-1113.6654 784.6285,-575.5779 789.0897,-444.7323"/>
<polygon fill="#000000" stroke="#000000" points="792.6004,-444.4589 789.429,-434.3499 785.6041,-444.2302 792.6004,-444.4589"/>
</g>
<!-- github.com/mdlayher/genetlink -->
<g id="node3" class="node">
<title>github.com/mdlayher/genetlink</title>
<g id="a_node3"><a xlink:href="https://github.com/mdlayher/genetlink" xlink:title="github.com/mdlayher/genetlink">
<ellipse fill="none" stroke="#000000" cx="501.1102" cy="-933" rx="122.3786" ry="18"/>
<text text-anchor="middle" x="501.1102" y="-929.3" font-family="Times,serif" font-size="14.00" fill="#000000">github.com/mdlayher/genetlink</text>
</a>
</g>
</g>
<!-- github.com/mdlayher/genetlink&#45;&gt;github.com/mdlayher/netlink -->
<g id="edge2" class="edge">
<title>github.com/mdlayher/genetlink&#45;&gt;github.com/mdlayher/netlink</title>
<path fill="none" stroke="#000000" d="M514.5747,-914.8247C541.553,-878.0041 603.4206,-791.5069 647.5479,-714 702.3168,-617.8016 755.4589,-497.2189 778.28,-443.7392"/>
<polygon fill="#000000" stroke="#000000" points="781.6184,-444.8321 782.3069,-434.2597 775.1756,-442.0952 781.6184,-444.8321"/>
</g>
<!-- github.com/digitalocean/go&#45;openvswitch -->
<g id="node4" class="node">
<title>github.com/digitalocean/go&#45;openvswitch</title>
<g id="a_node4"><a xlink:href="https://github.com/digitalocean/go-openvswitch" xlink:title="github.com/digitalocean/go&#45;openvswitch">
<ellipse fill="none" stroke="#000000" cx="171.3362" cy="-1176" rx="155.1726" ry="18"/>
<text text-anchor="middle" x="171.3362" y="-1172.3" font-family="Times,serif" font-size="14.00" fill="#000000">github.com/digitalocean/go&#45;openvswitch</text>
</a>
</g>
</g>
<!-- github.com/digitalocean/go&#45;openvswitch&#45;&gt;github.com/mdlayher/genetlink -->
<g id="edge3" class="edge">
<title>github.com/digitalocean/go&#45;openvswitch&#45;&gt;github.com/mdlayher/genetlink</title>
<path fill="none" stroke="#000000" d="M290.7153,-1164.44C303.3311,-1160.5615 315.5839,-1155.5234 326.6724,-1149 405.1851,-1102.8109 462.8401,-1007.1074 487.6467,-960.1636"/>
<polygon fill="#000000" stroke="#000000" points="490.8049,-961.6762 492.3021,-951.1877 484.591,-958.4533 490.8049,-961.6762"/>
</g>
<!-- github.com/mdlayher/devlink -->
<g id="node5" class="node">
<title>github.com/mdlayher/devlink</title>
<g id="a_node5"><a xlink:href="https://github.com/mdlayher/devlink" xlink:title="github.com/mdlayher/devlink">
<ellipse fill="none" stroke="#000000" cx="171.3362" cy="-1122" rx="116.1796" ry="18"/>
<text text-anchor="middle" x="171.3362" y="-1118.3" font-family="Times,serif" font-size="14.00" fill="#000000">github.com/mdlayher/devlink</text>
</a>
</g>
</g>
<!-- github.com/mdlayher/devlink&#45;&gt;github.com/mdlayher/genetlink -->
<g id="edge4" class="edge">
<title>github.com/mdlayher/devlink&#45;&gt;github.com/mdlayher/genetlink</title>
<path fill="none" stroke="#000000" d="M272.6341,-1113.0798C291.2192,-1109.0484 309.9962,-1103.2679 326.6724,-1095 393.0052,-1062.1131 451.9199,-995.9264 481.3174,-959.1473"/>
<polygon fill="#000000" stroke="#000000" points="484.3731,-960.9238 487.8072,-950.901 478.8723,-956.5947 484.3731,-960.9238"/>
</g>
<!-- github.com/mdlayher/quota -->
<g id="node6" class="node">
<title>github.com/mdlayher/quota</title>
<g id="a_node6"><a xlink:href="https://github.com/mdlayher/quota" xlink:title="github.com/mdlayher/quota">
<ellipse fill="none" stroke="#000000" cx="171.3362" cy="-1068" rx="109.381" ry="18"/>
<text text-anchor="middle" x="171.3362" y="-1064.3" font-family="Times,serif" font-size="14.00" fill="#000000">github.com/mdlayher/quota</text>
</a>
</g>
</g>
<!-- github.com/mdlayher/quota&#45;&gt;github.com/mdlayher/genetlink -->
<g id="edge5" class="edge">
<title>github.com/mdlayher/quota&#45;&gt;github.com/mdlayher/genetlink</title>
<path fill="none" stroke="#000000" d="M262.844,-1058.07C284.2136,-1054.1256 306.587,-1048.6344 326.6724,-1041 381.1537,-1020.2918 437.2562,-981.9316 470.6483,-956.946"/>
<polygon fill="#000000" stroke="#000000" points="472.7732,-959.7272 478.6337,-950.9008 468.5481,-954.1461 472.7732,-959.7272"/>
</g>
<!-- github.com/mdlayher/taskstats -->
<g id="node7" class="node">
<title>github.com/mdlayher/taskstats</title>
<g id="a_node7"><a xlink:href="https://github.com/mdlayher/taskstats" xlink:title="github.com/mdlayher/taskstats">
<ellipse fill="none" stroke="#000000" cx="171.3362" cy="-1014" rx="119.6788" ry="18"/>
<text text-anchor="middle" x="171.3362" y="-1010.3" font-family="Times,serif" font-size="14.00" fill="#000000">github.com/mdlayher/taskstats</text>
</a>
</g>
</g>
<!-- github.com/mdlayher/taskstats&#45;&gt;github.com/mdlayher/genetlink -->
<g id="edge6" class="edge">
<title>github.com/mdlayher/taskstats&#45;&gt;github.com/mdlayher/genetlink</title>
<path fill="none" stroke="#000000" d="M256.3905,-1001.2396C279.3274,-997.2489 304.0516,-992.4436 326.6724,-987 366.0871,-977.5151 409.6506,-964.0319 443.3834,-952.9116"/>
<polygon fill="#000000" stroke="#000000" points="444.6851,-956.1673 453.0721,-949.6936 442.4786,-949.5241 444.6851,-956.1673"/>
</g>
<!-- github.com/mdlayher/wifi -->
<g id="node8" class="node">
<title>github.com/mdlayher/wifi</title>
<g id="a_node8"><a xlink:href="https://github.com/mdlayher/wifi" xlink:title="github.com/mdlayher/wifi">
<ellipse fill="none" stroke="#000000" cx="171.3362" cy="-960" rx="103.9815" ry="18"/>
<text text-anchor="middle" x="171.3362" y="-956.3" font-family="Times,serif" font-size="14.00" fill="#000000">github.com/mdlayher/wifi</text>
</a>
</g>
</g>
<!-- github.com/mdlayher/wifi&#45;&gt;github.com/mdlayher/genetlink -->
<g id="edge7" class="edge">
<title>github.com/mdlayher/wifi&#45;&gt;github.com/mdlayher/genetlink</title>
<path fill="none" stroke="#000000" d="M265.3949,-952.299C302.2689,-949.28 344.9779,-945.7832 383.8298,-942.6022"/>
<polygon fill="#000000" stroke="#000000" points="384.4651,-946.062 394.1461,-941.7576 383.8938,-939.0854 384.4651,-946.062"/>
</g>
<!-- github.com/mdlayher/wireguardctrl -->
<g id="node9" class="node">
<title>github.com/mdlayher/wireguardctrl</title>
<g id="a_node9"><a xlink:href="https://github.com/mdlayher/wireguardctrl" xlink:title="github.com/mdlayher/wireguardctrl">
<ellipse fill="none" stroke="#000000" cx="171.3362" cy="-906" rx="137.2758" ry="18"/>
<text text-anchor="middle" x="171.3362" y="-902.3" font-family="Times,serif" font-size="14.00" fill="#000000">github.com/mdlayher/wireguardctrl</text>
</a>
</g>
</g>
<!-- github.com/mdlayher/wireguardctrl&#45;&gt;github.com/mdlayher/genetlink -->
<g id="edge8" class="edge">
<title>github.com/mdlayher/wireguardctrl&#45;&gt;github.com/mdlayher/genetlink</title>
<path fill="none" stroke="#000000" d="M288.0663,-915.5572C319.2473,-918.1101 352.9468,-920.8692 384.1407,-923.4232"/>
<polygon fill="#000000" stroke="#000000" points="383.9219,-926.9169 394.1741,-924.2447 384.4931,-919.9403 383.9219,-926.9169"/>
</g>
<!-- github.com/Merovius/nbd -->
<g id="node10" class="node">
<title>github.com/Merovius/nbd</title>
<g id="a_node10"><a xlink:href="https://github.com/Merovius/nbd" xlink:title="github.com/Merovius/nbd">
<ellipse fill="none" stroke="#000000" cx="171.3362" cy="-852" rx="103.1819" ry="18"/>
<text text-anchor="middle" x="171.3362" y="-848.3" font-family="Times,serif" font-size="14.00" fill="#000000">github.com/Merovius/nbd</text>
</a>
</g>
</g>
<!-- github.com/Merovius/nbd&#45;&gt;github.com/mdlayher/genetlink -->
<g id="edge9" class="edge">
<title>github.com/Merovius/nbd&#45;&gt;github.com/mdlayher/genetlink</title>
<path fill="none" stroke="#000000" d="M250.3633,-863.7231C274.948,-867.9081 302.0557,-873.0761 326.6724,-879 366.0871,-888.4849 409.6506,-901.9681 443.3834,-913.0884"/>
<polygon fill="#000000" stroke="#000000" points="442.4786,-916.4759 453.0721,-916.3064 444.6851,-909.8327 442.4786,-916.4759"/>
</g>
<!-- github.com/rtr7/router7 -->
<g id="node11" class="node">
<title>github.com/rtr7/router7</title>
<g id="a_node11"><a xlink:href="https://github.com/rtr7/router7" xlink:title="github.com/rtr7/router7">
<ellipse fill="none" stroke="#000000" cx="171.3362" cy="-798" rx="94.4839" ry="18"/>
<text text-anchor="middle" x="171.3362" y="-794.3" font-family="Times,serif" font-size="14.00" fill="#000000">github.com/rtr7/router7</text>
</a>
</g>
</g>
<!-- github.com/rtr7/router7&#45;&gt;github.com/mdlayher/genetlink -->
<g id="edge10" class="edge">
<title>github.com/rtr7/router7&#45;&gt;github.com/mdlayher/genetlink</title>
<path fill="none" stroke="#000000" d="M254.7329,-806.4966C278.4763,-810.5102 304.0284,-816.393 326.6724,-825 381.1537,-845.7082 437.2562,-884.0684 470.6483,-909.054"/>
<polygon fill="#000000" stroke="#000000" points="468.5481,-911.8539 478.6337,-915.0992 472.7732,-906.2728 468.5481,-911.8539"/>
</g>
<!-- github.com/u&#45;root/u&#45;bmc -->
<g id="node12" class="node">
<title>github.com/u&#45;root/u&#45;bmc</title>
<g id="a_node12"><a xlink:href="https://github.com/u-root/u-bmc" xlink:title="github.com/u&#45;root/u&#45;bmc">
<ellipse fill="none" stroke="#000000" cx="171.3362" cy="-744" rx="100.9827" ry="18"/>
<text text-anchor="middle" x="171.3362" y="-740.3" font-family="Times,serif" font-size="14.00" fill="#000000">github.com/u&#45;root/u&#45;bmc</text>
</a>
</g>
</g>
<!-- github.com/u&#45;root/u&#45;bmc&#45;&gt;github.com/mdlayher/genetlink -->
<g id="edge11" class="edge">
<title>github.com/u&#45;root/u&#45;bmc&#45;&gt;github.com/mdlayher/genetlink</title>
<path fill="none" stroke="#000000" d="M264.047,-751.1752C285.3704,-755.2257 307.4212,-761.4555 326.6724,-771 393.0052,-803.8869 451.9199,-870.0736 481.3174,-906.8527"/>
<polygon fill="#000000" stroke="#000000" points="478.8723,-909.4053 487.8072,-915.099 484.3731,-905.0762 478.8723,-909.4053"/>
</g>
<!-- github.com/mdlayher/kobject -->
<g id="node13" class="node">
<title>github.com/mdlayher/kobject</title>
<g id="a_node13"><a xlink:href="https://github.com/mdlayher/kobject" xlink:title="github.com/mdlayher/kobject">
<ellipse fill="none" stroke="#000000" cx="501.1102" cy="-661" rx="115.8798" ry="18"/>
<text text-anchor="middle" x="501.1102" y="-657.3" font-family="Times,serif" font-size="14.00" fill="#000000">github.com/mdlayher/kobject</text>
</a>
</g>
</g>
<!-- github.com/mdlayher/kobject&#45;&gt;github.com/mdlayher/netlink -->
<g id="edge12" class="edge">
<title>github.com/mdlayher/kobject&#45;&gt;github.com/mdlayher/netlink</title>
<path fill="none" stroke="#000000" d="M600.2926,-651.6898C616.9962,-647.1217 633.461,-640.5128 647.5479,-631 717.1988,-583.965 761.267,-490.2991 779.8187,-443.6838"/>
<polygon fill="#000000" stroke="#000000" points="783.1365,-444.8085 783.4902,-434.2195 776.6103,-442.2767 783.1365,-444.8085"/>
</g>
<!-- github.com/florianl/go&#45;conntrack -->
<g id="node14" class="node">
<title>github.com/florianl/go&#45;conntrack</title>
<g id="a_node14"><a xlink:href="https://github.com/florianl/go-conntrack" xlink:title="github.com/florianl/go&#45;conntrack">
<ellipse fill="none" stroke="#000000" cx="171.3362" cy="-524" rx="128.0773" ry="18"/>
<text text-anchor="middle" x="171.3362" y="-520.3" font-family="Times,serif" font-size="14.00" fill="#000000">github.com/florianl/go&#45;conntrack</text>
</a>
</g>
</g>
<!-- github.com/florianl/go&#45;conntrack&#45;&gt;github.com/mdlayher/netlink -->
<g id="edge13" class="edge">
<title>github.com/florianl/go&#45;conntrack&#45;&gt;github.com/mdlayher/netlink</title>
<path fill="none" stroke="#000000" d="M274.6712,-513.2319C371.5974,-502.1922 520.2739,-482.8412 647.5479,-456 674.4971,-450.3166 703.8604,-442.3736 728.8837,-435.0623"/>
<polygon fill="#000000" stroke="#000000" points="730.0049,-438.3807 738.6036,-432.1909 728.0217,-431.6675 730.0049,-438.3807"/>
</g>
<!-- github.com/florianl/go&#45;nflog -->
<g id="node15" class="node">
<title>github.com/florianl/go&#45;nflog</title>
<g id="a_node15"><a xlink:href="https://github.com/florianl/go-nflog" xlink:title="github.com/florianl/go&#45;nflog">
<ellipse fill="none" stroke="#000000" cx="171.3362" cy="-470" rx="112.3801" ry="18"/>
<text text-anchor="middle" x="171.3362" y="-466.3" font-family="Times,serif" font-size="14.00" fill="#000000">github.com/florianl/go&#45;nflog</text>
</a>
</g>
</g>
<!-- github.com/florianl/go&#45;nflog&#45;&gt;github.com/mdlayher/netlink -->
<g id="edge14" class="edge">
<title>github.com/florianl/go&#45;nflog&#45;&gt;github.com/mdlayher/netlink</title>
<path fill="none" stroke="#000000" d="M272.1693,-461.9484C368.5845,-454.1507 518.0344,-441.8057 647.5479,-430 659.1434,-428.943 671.2665,-427.8037 683.3352,-426.6477"/>
<polygon fill="#000000" stroke="#000000" points="683.8288,-430.1165 693.4473,-425.6742 683.1579,-423.1487 683.8288,-430.1165"/>
</g>
<!-- github.com/florianl/go&#45;nfqueue -->
<g id="node16" class="node">
<title>github.com/florianl/go&#45;nfqueue</title>
<g id="a_node16"><a xlink:href="https://github.com/florianl/go-nfqueue" xlink:title="github.com/florianl/go&#45;nfqueue">
<ellipse fill="none" stroke="#000000" cx="171.3362" cy="-416" rx="122.3786" ry="18"/>
<text text-anchor="middle" x="171.3362" y="-412.3" font-family="Times,serif" font-size="14.00" fill="#000000">github.com/florianl/go&#45;nfqueue</text>
</a>
</g>
</g>
<!-- github.com/florianl/go&#45;nfqueue&#45;&gt;github.com/mdlayher/netlink -->
<g id="edge15" class="edge">
<title>github.com/florianl/go&#45;nfqueue&#45;&gt;github.com/mdlayher/netlink</title>
<path fill="none" stroke="#000000" d="M293.552,-416C401.0853,-416 556.9444,-416 665.2192,-416"/>
<polygon fill="#000000" stroke="#000000" points="665.5457,-419.5001 675.5457,-416 665.5456,-412.5001 665.5457,-419.5001"/>
</g>
<!-- github.com/google/nftables -->
<g id="node17" class="node">
<title>github.com/google/nftables</title>
<g id="a_node17"><a xlink:href="https://github.com/google/nftables" xlink:title="github.com/google/nftables">
<ellipse fill="none" stroke="#000000" cx="171.3362" cy="-362" rx="107.781" ry="18"/>
<text text-anchor="middle" x="171.3362" y="-358.3" font-family="Times,serif" font-size="14.00" fill="#000000">github.com/google/nftables</text>
</a>
</g>
</g>
<!-- github.com/google/nftables&#45;&gt;github.com/mdlayher/netlink -->
<g id="edge16" class="edge">
<title>github.com/google/nftables&#45;&gt;github.com/mdlayher/netlink</title>
<path fill="none" stroke="#000000" d="M266.9753,-370.3487C378.4399,-380.0788 562.301,-396.1288 679.6786,-406.3751"/>
<polygon fill="#000000" stroke="#000000" points="679.5024,-409.8729 689.7689,-407.2559 680.1112,-402.8994 679.5024,-409.8729"/>
</g>
<!-- github.com/ti&#45;mo/netfilter -->
<g id="node18" class="node">
<title>github.com/ti&#45;mo/netfilter</title>
<g id="a_node18"><a xlink:href="https://github.com/ti-mo/netfilter" xlink:title="github.com/ti&#45;mo/netfilter">
<ellipse fill="none" stroke="#000000" cx="501.1102" cy="-568" rx="103.1819" ry="18"/>
<text text-anchor="middle" x="501.1102" y="-564.3" font-family="Times,serif" font-size="14.00" fill="#000000">github.com/ti&#45;mo/netfilter</text>
</a>
</g>
</g>
<!-- github.com/ti&#45;mo/netfilter&#45;&gt;github.com/mdlayher/netlink -->
<g id="edge17" class="edge">
<title>github.com/ti&#45;mo/netfilter&#45;&gt;github.com/mdlayher/netlink</title>
<path fill="none" stroke="#000000" d="M568.7247,-554.2999C594.2365,-547.6819 623.0061,-538.4213 647.5479,-526 692.448,-503.2748 737.2247,-465.5906 764.2528,-440.7737"/>
<polygon fill="#000000" stroke="#000000" points="766.7824,-443.2009 771.721,-433.8275 762.015,-438.0752 766.7824,-443.2009"/>
</g>
<!-- github.com/ti&#45;mo/conntrack -->
<g id="node19" class="node">
<title>github.com/ti&#45;mo/conntrack</title>
<g id="a_node19"><a xlink:href="https://github.com/ti-mo/conntrack" xlink:title="github.com/ti&#45;mo/conntrack">
<ellipse fill="none" stroke="#000000" cx="171.3362" cy="-578" rx="110.4804" ry="18"/>
<text text-anchor="middle" x="171.3362" y="-574.3" font-family="Times,serif" font-size="14.00" fill="#000000">github.com/ti&#45;mo/conntrack</text>
</a>
</g>
</g>
<!-- github.com/ti&#45;mo/conntrack&#45;&gt;github.com/ti&#45;mo/netfilter -->
<g id="edge18" class="edge">
<title>github.com/ti&#45;mo/conntrack&#45;&gt;github.com/ti&#45;mo/netfilter</title>
<path fill="none" stroke="#000000" d="M280.2305,-574.6979C315.0642,-573.6416 353.6812,-572.4706 388.7565,-571.407"/>
<polygon fill="#000000" stroke="#000000" points="389.1438,-574.897 399.0331,-571.0954 388.9315,-567.9002 389.1438,-574.897"/>
</g>
<!-- github.com/ema/qdisc -->
<g id="node20" class="node">
<title>github.com/ema/qdisc</title>
<g id="a_node20"><a xlink:href="https://github.com/ema/qdisc" xlink:title="github.com/ema/qdisc">
<ellipse fill="none" stroke="#000000" cx="501.1102" cy="-279" rx="89.8845" ry="18"/>
<text text-anchor="middle" x="501.1102" y="-275.3" font-family="Times,serif" font-size="14.00" fill="#000000">github.com/ema/qdisc</text>
</a>
</g>
</g>
<!-- github.com/ema/qdisc&#45;&gt;github.com/mdlayher/netlink -->
<g id="edge19" class="edge">
<title>github.com/ema/qdisc&#45;&gt;github.com/mdlayher/netlink</title>
<path fill="none" stroke="#000000" d="M550.1738,-294.2181C579.0567,-303.7985 615.9939,-317.1403 647.5479,-332 685.5052,-349.8752 726.5414,-374.7253 754.7641,-392.7563"/>
<polygon fill="#000000" stroke="#000000" points="753.1542,-395.8825 763.4569,-398.3535 756.9438,-389.997 753.1542,-395.8825"/>
</g>
<!-- github.com/florianl/go&#45;tc -->
<g id="node21" class="node">
<title>github.com/florianl/go&#45;tc</title>
<g id="a_node21"><a xlink:href="https://github.com/florianl/go-tc" xlink:title="github.com/florianl/go&#45;tc">
<ellipse fill="none" stroke="#000000" cx="501.1102" cy="-225" rx="100.1823" ry="18"/>
<text text-anchor="middle" x="501.1102" y="-221.3" font-family="Times,serif" font-size="14.00" fill="#000000">github.com/florianl/go&#45;tc</text>
</a>
</g>
</g>
<!-- github.com/florianl/go&#45;tc&#45;&gt;github.com/mdlayher/netlink -->
<g id="edge20" class="edge">
<title>github.com/florianl/go&#45;tc&#45;&gt;github.com/mdlayher/netlink</title>
<path fill="none" stroke="#000000" d="M593.1121,-232.2299C611.9539,-236.335 631.0497,-242.5741 647.5479,-252 705.9498,-285.3668 752.098,-351.8619 774.7129,-389.1162"/>
<polygon fill="#000000" stroke="#000000" points="771.8288,-391.1138 779.9486,-397.9196 777.8452,-387.5357 771.8288,-391.1138"/>
</g>
<!-- github.com/jsimonetti/rtnetlink -->
<g id="node22" class="node">
<title>github.com/jsimonetti/rtnetlink</title>
<g id="a_node22"><a xlink:href="https://github.com/jsimonetti/rtnetlink" xlink:title="github.com/jsimonetti/rtnetlink">
<ellipse fill="none" stroke="#000000" cx="501.1102" cy="-171" rx="121.5784" ry="18"/>
<text text-anchor="middle" x="501.1102" y="-167.3" font-family="Times,serif" font-size="14.00" fill="#000000">github.com/jsimonetti/rtnetlink</text>
</a>
</g>
</g>
<!-- github.com/jsimonetti/rtnetlink&#45;&gt;github.com/mdlayher/netlink -->
<g id="edge21" class="edge">
<title>github.com/jsimonetti/rtnetlink&#45;&gt;github.com/mdlayher/netlink</title>
<path fill="none" stroke="#000000" d="M607.1447,-179.8901C621.4638,-184.0709 635.3888,-189.9069 647.5479,-198 718.3671,-245.1375 762.0129,-340.7797 780.1658,-388.1394"/>
<polygon fill="#000000" stroke="#000000" points="776.9754,-389.601 783.7507,-397.7464 783.5337,-387.1538 776.9754,-389.601"/>
</g>
<!-- gitlab.com/mergetb/tech/rtnl -->
<g id="node23" class="node">
<title>gitlab.com/mergetb/tech/rtnl</title>
<g id="a_node23"><a xlink:href="https://gitlab.com/mergetb/tech/rtnl" xlink:title="gitlab.com/mergetb/tech/rtnl">
<ellipse fill="none" stroke="#000000" cx="501.1102" cy="-117" rx="112.3801" ry="18"/>
<text text-anchor="middle" x="501.1102" y="-113.3" font-family="Times,serif" font-size="14.00" fill="#000000">gitlab.com/mergetb/tech/rtnl</text>
</a>
</g>
</g>
<!-- gitlab.com/mergetb/tech/rtnl&#45;&gt;github.com/mdlayher/netlink -->
<g id="edge22" class="edge">
<title>gitlab.com/mergetb/tech/rtnl&#45;&gt;github.com/mdlayher/netlink</title>
<path fill="none" stroke="#000000" d="M604.8545,-123.9476C620.1436,-128.3138 634.9603,-134.7171 647.5479,-144 731.3729,-205.8182 770.1911,-331.7409 783.8709,-387.888"/>
<polygon fill="#000000" stroke="#000000" points="780.5142,-388.9037 786.208,-397.8385 787.3287,-387.3031 780.5142,-388.9037"/>
</g>
<!-- github.com/SpComb/go&#45;onewire -->
<g id="node24" class="node">
<title>github.com/SpComb/go&#45;onewire</title>
<g id="a_node24"><a xlink:href="https://github.com/SpComb/go-onewire" xlink:title="github.com/SpComb/go&#45;onewire">
<ellipse fill="none" stroke="#000000" cx="501.1102" cy="-34" rx="127.2775" ry="18"/>
<text text-anchor="middle" x="501.1102" y="-30.3" font-family="Times,serif" font-size="14.00" fill="#000000">github.com/SpComb/go&#45;onewire</text>
</a>
</g>
</g>
<!-- github.com/SpComb/go&#45;onewire&#45;&gt;github.com/mdlayher/netlink -->
<g id="edge23" class="edge">
<title>github.com/SpComb/go&#45;onewire&#45;&gt;github.com/mdlayher/netlink</title>
<path fill="none" stroke="#000000" d="M576.409,-48.5393C601.4675,-56.4579 627.9523,-68.5683 647.5479,-87 738.1871,-172.2557 774.0997,-325.016 785.4826,-387.8385"/>
<polygon fill="#000000" stroke="#000000" points="782.0548,-388.5563 787.2177,-397.8081 788.9512,-387.356 782.0548,-388.5563"/>
</g>
</g>
</svg>
