<?xml version="1.0" encoding="UTF-8" standalone="no"?>
<!DOCTYPE svg PUBLIC "-//W3C//DTD SVG 1.1//EN"
 "http://www.w3.org/Graphics/SVG/1.1/DTD/svg11.dtd">
<!-- Generated by graphviz version 2.40.1 (0)
 -->
<!-- Title: %3 Pages: 1 -->
<svg width="1155pt" height="1378pt"
 viewBox="0.00 0.00 1154.51 1378.00" xmlns="http://www.w3.org/2000/svg" xmlns:xlink="http://www.w3.org/1999/xlink">
<g id="graph0" class="graph" transform="scale(1 1) rotate(0) translate(4 1374)">
<title>%3</title>
<polygon fill="#ffffff" stroke="transparent" points="-4,4 -4,-1374 1150.5075,-1374 1150.5075,4 -4,4"/>
<g id="clust1" class="cluster">
<title>cluster_netlink</title>
<polygon fill="none" stroke="#000000" points="831.3333,-390 831.3333,-442 1138.5075,-442 1138.5075,-390 831.3333,-390"/>
</g>
<g id="clust2" class="cluster">
<title>cluster_connector</title>
<polygon fill="none" stroke="#000000" points="441.7647,-1287 441.7647,-1362 811.3333,-1362 811.3333,-1287 441.7647,-1287"/>
<text text-anchor="middle" x="626.549" y="-1346.8" font-family="Times,serif" font-size="14.00" fill="#000000">NETLINK_CONNECTOR</text>
</g>
<g id="clust4" class="cluster">
<title>cluster_generic</title>
<polygon fill="none" stroke="#000000" points="8,-718 8,-1279 791.8351,-1279 791.8351,-718 8,-718"/>
<text text-anchor="middle" x="399.9175" y="-1263.8" font-family="Times,serif" font-size="14.00" fill="#000000">NETLINK_GENERIC (genetlink)</text>
</g>
<g id="clust6" class="cluster">
<title>cluster_kobject_uevent</title>
<polygon fill="none" stroke="#000000" points="471.0121,-635 471.0121,-710 782.0859,-710 782.0859,-635 471.0121,-635"/>
<text text-anchor="middle" x="626.549" y="-694.8" font-family="Times,serif" font-size="14.00" fill="#000000">NETLINK_KOBJECT_UEVENT</text>
</g>
<g id="clust8" class="cluster">
<title>cluster_netfilter</title>
<polygon fill="none" stroke="#000000" points="43.0969,-336 43.0969,-627 765.8374,-627 765.8374,-336 43.0969,-336"/>
<text text-anchor="middle" x="404.4671" y="-611.8" font-family="Times,serif" font-size="14.00" fill="#000000">NETLINK_NETFILTER (nfnetlink)</text>
</g>
<g id="clust11" class="cluster">
<title>cluster_route</title>
<polygon fill="none" stroke="#000000" points="461.263,-91 461.263,-328 791.8351,-328 791.8351,-91 461.263,-91"/>
<text text-anchor="middle" x="626.549" y="-312.8" font-family="Times,serif" font-size="14.00" fill="#000000">NETLINK_ROUTE (rtnetlink)</text>
</g>
<g id="clust13" class="cluster">
<title>cluster_w1</title>
<polygon fill="none" stroke="#000000" points="458.6632,-8 458.6632,-83 794.4348,-83 794.4348,-8 458.6632,-8"/>
<text text-anchor="middle" x="626.549" y="-67.8" font-family="Times,serif" font-size="14.00" fill="#000000">NETLINK_W1</text>
</g>
<!-- github.com/mdlayher/netlink -->
<g id="node1" class="node">
<title>github.com/mdlayher/netlink</title>
<g id="a_node1"><a xlink:href="https://github.com/mdlayher/netlink" xlink:title="github.com/mdlayher/netlink">
<ellipse fill="none" stroke="#000000" cx="984.9204" cy="-416" rx="145.6742" ry="18"/>
<text text-anchor="middle" x="984.9204" y="-412.3" font-family="Times,serif" font-size="14.00" fill="#000000">github.com/mdlayher/netlink</text>
</a>
</g>
</g>
<!-- github.com/fearful&#45;symmetry/garlic -->
<g id="node2" class="node">
<title>github.com/fearful&#45;symmetry/garlic</title>
<g id="a_node2"><a xlink:href="https://github.com/fearful-symmetry/garlic" xlink:title="github.com/fearful&#45;symmetry/garlic">
<ellipse fill="none" stroke="#000000" cx="626.549" cy="-1313" rx="176.5689" ry="18"/>
<text text-anchor="middle" x="626.549" y="-1309.3" font-family="Times,serif" font-size="14.00" fill="#000000">github.com/fearful&#45;symmetry/garlic</text>
</a>
</g>
</g>
<!-- github.com/fearful&#45;symmetry/garlic&#45;&gt;github.com/mdlayher/netlink -->
<g id="edge1" class="edge">
<title>github.com/fearful&#45;symmetry/garlic&#45;&gt;github.com/mdlayher/netlink</title>
<path fill="none" stroke="#000000" d="M780.1036,-1303.8391C791.5742,-1298.6099 802.2078,-1291.797 811.3333,-1283 936.1536,-1162.6733 975.8486,-579.6855 983.4608,-444.1794"/>
<polygon fill="#000000" stroke="#000000" points="986.9567,-444.3497 984.0098,-434.173 979.9672,-443.9662 986.9567,-444.3497"/>
</g>
<!-- github.com/mdlayher/genetlink -->
<g id="node3" class="node">
<title>github.com/mdlayher/genetlink</title>
<g id="a_node3"><a xlink:href="https://github.com/mdlayher/genetlink" xlink:title="github.com/mdlayher/genetlink">
<ellipse fill="none" stroke="#000000" cx="626.549" cy="-960" rx="157.0724" ry="18"/>
<text text-anchor="middle" x="626.549" y="-956.3" font-family="Times,serif" font-size="14.00" fill="#000000">github.com/mdlayher/genetlink</text>
</a>
</g>
</g>
<!-- github.com/mdlayher/genetlink&#45;&gt;github.com/mdlayher/netlink -->
<g id="edge2" class="edge">
<title>github.com/mdlayher/genetlink&#45;&gt;github.com/mdlayher/netlink</title>
<path fill="none" stroke="#000000" d="M641.2111,-942.0168C673.5031,-902.0903 752.5616,-802.5703 811.3333,-714 875.377,-617.4848 941.7575,-496.6603 970.3688,-443.3856"/>
<polygon fill="#000000" stroke="#000000" points="973.628,-444.7132 975.2626,-434.2452 967.4569,-441.4091 973.628,-444.7132"/>
</g>
<!-- github.com/axatrax/l2tp -->
<g id="node4" class="node">
<title>github.com/axatrax/l2tp</title>
<g id="a_node4"><a xlink:href="https://github.com/axatrax/l2tp" xlink:title="github.com/axatrax/l2tp">
<ellipse fill="none" stroke="#000000" cx="214.8824" cy="-1230" rx="122.6784" ry="18"/>
<text text-anchor="middle" x="214.8824" y="-1226.3" font-family="Times,serif" font-size="14.00" fill="#000000">github.com/axatrax/l2tp</text>
</a>
</g>
</g>
<!-- github.com/axatrax/l2tp&#45;&gt;github.com/mdlayher/genetlink -->
<g id="edge3" class="edge">
<title>github.com/axatrax/l2tp&#45;&gt;github.com/mdlayher/genetlink</title>
<path fill="none" stroke="#000000" d="M336.4701,-1227.4085C363.0796,-1223.1113 390.286,-1215.6219 413.7647,-1203 509.3159,-1151.6327 581.9683,-1039.1291 611.7636,-987.2254"/>
<polygon fill="#000000" stroke="#000000" points="614.9529,-988.6958 616.8242,-978.2675 608.8581,-985.2527 614.9529,-988.6958"/>
</g>
<!-- github.com/digitalocean/go&#45;openvswitch -->
<g id="node5" class="node">
<title>github.com/digitalocean/go&#45;openvswitch</title>
<g id="a_node5"><a xlink:href="https://github.com/digitalocean/go-openvswitch" xlink:title="github.com/digitalocean/go&#45;openvswitch">
<ellipse fill="none" stroke="#000000" cx="214.8824" cy="-1176" rx="198.7648" ry="18"/>
<text text-anchor="middle" x="214.8824" y="-1172.3" font-family="Times,serif" font-size="14.00" fill="#000000">github.com/digitalocean/go&#45;openvswitch</text>
</a>
</g>
</g>
<!-- github.com/digitalocean/go&#45;openvswitch&#45;&gt;github.com/mdlayher/genetlink -->
<g id="edge4" class="edge">
<title>github.com/digitalocean/go&#45;openvswitch&#45;&gt;github.com/mdlayher/genetlink</title>
<path fill="none" stroke="#000000" d="M368.4501,-1164.5487C384.1311,-1160.6236 399.5159,-1155.5452 413.7647,-1149 497.3201,-1110.6188 571.8385,-1028.166 606.3056,-985.997"/>
<polygon fill="#000000" stroke="#000000" points="609.1011,-988.1061 612.6558,-978.1253 603.6529,-983.7109 609.1011,-988.1061"/>
</g>
<!-- github.com/mdlayher/devlink -->
<g id="node6" class="node">
<title>github.com/mdlayher/devlink</title>
<g id="a_node6"><a xlink:href="https://github.com/mdlayher/devlink" xlink:title="github.com/mdlayher/devlink">
<ellipse fill="none" stroke="#000000" cx="214.8824" cy="-1122" rx="147.5738" ry="18"/>
<text text-anchor="middle" x="214.8824" y="-1118.3" font-family="Times,serif" font-size="14.00" fill="#000000">github.com/mdlayher/devlink</text>
</a>
</g>
</g>
<!-- github.com/mdlayher/devlink&#45;&gt;github.com/mdlayher/genetlink -->
<g id="edge5" class="edge">
<title>github.com/mdlayher/devlink&#45;&gt;github.com/mdlayher/genetlink</title>
<path fill="none" stroke="#000000" d="M342.5845,-1112.9419C366.6827,-1108.9271 391.3442,-1103.1879 413.7647,-1095 485.5087,-1068.7993 558.3593,-1015.5498 597.4411,-984.3291"/>
<polygon fill="#000000" stroke="#000000" points="599.6743,-987.0244 605.2556,-978.0189 595.2766,-981.5783 599.6743,-987.0244"/>
</g>
<!-- github.com/mdlayher/quota -->
<g id="node7" class="node">
<title>github.com/mdlayher/quota</title>
<g id="a_node7"><a xlink:href="https://github.com/mdlayher/quota" xlink:title="github.com/mdlayher/quota">
<ellipse fill="none" stroke="#000000" cx="214.8824" cy="-1068" rx="139.9756" ry="18"/>
<text text-anchor="middle" x="214.8824" y="-1064.3" font-family="Times,serif" font-size="14.00" fill="#000000">github.com/mdlayher/quota</text>
</a>
</g>
</g>
<!-- github.com/mdlayher/quota&#45;&gt;github.com/mdlayher/genetlink -->
<g id="edge6" class="edge">
<title>github.com/mdlayher/quota&#45;&gt;github.com/mdlayher/genetlink</title>
<path fill="none" stroke="#000000" d="M327.506,-1057.2713C355.9043,-1053.3222 386.1598,-1048.029 413.7647,-1041 472.3466,-1026.0833 536.8744,-1000.0814 579.337,-981.5624"/>
<polygon fill="#000000" stroke="#000000" points="580.8358,-984.7268 588.5806,-977.4971 578.0177,-978.3192 580.8358,-984.7268"/>
</g>
<!-- github.com/mdlayher/taskstats -->
<g id="node8" class="node">
<title>github.com/mdlayher/taskstats</title>
<g id="a_node8"><a xlink:href="https://github.com/mdlayher/taskstats" xlink:title="github.com/mdlayher/taskstats">
<ellipse fill="none" stroke="#000000" cx="214.8824" cy="-1014" rx="155.9723" ry="18"/>
<text text-anchor="middle" x="214.8824" y="-1010.3" font-family="Times,serif" font-size="14.00" fill="#000000">github.com/mdlayher/taskstats</text>
</a>
</g>
</g>
<!-- github.com/mdlayher/taskstats&#45;&gt;github.com/mdlayher/genetlink -->
<g id="edge7" class="edge">
<title>github.com/mdlayher/taskstats&#45;&gt;github.com/mdlayher/genetlink</title>
<path fill="none" stroke="#000000" d="M317.9665,-1000.478C377.2997,-992.695 451.9529,-982.9025 512.9693,-974.8987"/>
<polygon fill="#000000" stroke="#000000" points="513.568,-978.3503 523.0278,-973.5793 512.6575,-971.4097 513.568,-978.3503"/>
</g>
<!-- github.com/mdlayher/wifi -->
<g id="node9" class="node">
<title>github.com/mdlayher/wifi</title>
<g id="a_node9"><a xlink:href="https://github.com/mdlayher/wifi" xlink:title="github.com/mdlayher/wifi">
<ellipse fill="none" stroke="#000000" cx="214.8824" cy="-960" rx="129.9769" ry="18"/>
<text text-anchor="middle" x="214.8824" y="-956.3" font-family="Times,serif" font-size="14.00" fill="#000000">github.com/mdlayher/wifi</text>
</a>
</g>
</g>
<!-- github.com/mdlayher/wifi&#45;&gt;github.com/mdlayher/genetlink -->
<g id="edge8" class="edge">
<title>github.com/mdlayher/wifi&#45;&gt;github.com/mdlayher/genetlink</title>
<path fill="none" stroke="#000000" d="M345.1363,-960C381.2474,-960 420.9627,-960 458.8864,-960"/>
<polygon fill="#000000" stroke="#000000" points="459.0064,-963.5001 469.0064,-960 459.0064,-956.5001 459.0064,-963.5001"/>
</g>
<!-- github.com/mdlayher/wireguardctrl -->
<g id="node10" class="node">
<title>github.com/mdlayher/wireguardctrl</title>
<g id="a_node10"><a xlink:href="https://github.com/mdlayher/wireguardctrl" xlink:title="github.com/mdlayher/wireguardctrl">
<ellipse fill="none" stroke="#000000" cx="214.8824" cy="-906" rx="177.3685" ry="18"/>
<text text-anchor="middle" x="214.8824" y="-902.3" font-family="Times,serif" font-size="14.00" fill="#000000">github.com/mdlayher/wireguardctrl</text>
</a>
</g>
</g>
<!-- github.com/mdlayher/wireguardctrl&#45;&gt;github.com/mdlayher/genetlink -->
<g id="edge9" class="edge">
<title>github.com/mdlayher/wireguardctrl&#45;&gt;github.com/mdlayher/genetlink</title>
<path fill="none" stroke="#000000" d="M323.5814,-920.2585C381.9044,-927.909 453.7276,-937.3303 512.8029,-945.0795"/>
<polygon fill="#000000" stroke="#000000" points="512.5522,-948.5765 522.9225,-946.4069 513.4627,-941.6359 512.5522,-948.5765"/>
</g>
<!-- github.com/Merovius/nbd -->
<g id="node11" class="node">
<title>github.com/Merovius/nbd</title>
<g id="a_node11"><a xlink:href="https://github.com/Merovius/nbd" xlink:title="github.com/Merovius/nbd">
<ellipse fill="none" stroke="#000000" cx="214.8824" cy="-852" rx="129.9769" ry="18"/>
<text text-anchor="middle" x="214.8824" y="-848.3" font-family="Times,serif" font-size="14.00" fill="#000000">github.com/Merovius/nbd</text>
</a>
</g>
</g>
<!-- github.com/Merovius/nbd&#45;&gt;github.com/mdlayher/genetlink -->
<g id="edge10" class="edge">
<title>github.com/Merovius/nbd&#45;&gt;github.com/mdlayher/genetlink</title>
<path fill="none" stroke="#000000" d="M322.834,-862.0887C352.5654,-866.1004 384.6403,-871.584 413.7647,-879 472.3466,-893.9167 536.8744,-919.9186 579.337,-938.4376"/>
<polygon fill="#000000" stroke="#000000" points="578.0177,-941.6808 588.5806,-942.5029 580.8358,-935.2732 578.0177,-941.6808"/>
</g>
<!-- github.com/rtr7/router7 -->
<g id="node12" class="node">
<title>github.com/rtr7/router7</title>
<g id="a_node12"><a xlink:href="https://github.com/rtr7/router7" xlink:title="github.com/rtr7/router7">
<ellipse fill="none" stroke="#000000" cx="214.8824" cy="-798" rx="122.6784" ry="18"/>
<text text-anchor="middle" x="214.8824" y="-794.3" font-family="Times,serif" font-size="14.00" fill="#000000">github.com/rtr7/router7</text>
</a>
</g>
</g>
<!-- github.com/rtr7/router7&#45;&gt;github.com/mdlayher/genetlink -->
<g id="edge11" class="edge">
<title>github.com/rtr7/router7&#45;&gt;github.com/mdlayher/genetlink</title>
<path fill="none" stroke="#000000" d="M328.4239,-804.8799C356.875,-808.9058 386.9256,-815.1985 413.7647,-825 485.5087,-851.2007 558.3593,-904.4502 597.4411,-935.6709"/>
<polygon fill="#000000" stroke="#000000" points="595.2766,-938.4217 605.2556,-941.9811 599.6743,-932.9756 595.2766,-938.4217"/>
</g>
<!-- github.com/u&#45;root/u&#45;bmc -->
<g id="node13" class="node">
<title>github.com/u&#45;root/u&#45;bmc</title>
<g id="a_node13"><a xlink:href="https://github.com/u-root/u-bmc" xlink:title="github.com/u&#45;root/u&#45;bmc">
<ellipse fill="none" stroke="#000000" cx="214.8824" cy="-744" rx="126.1777" ry="18"/>
<text text-anchor="middle" x="214.8824" y="-740.3" font-family="Times,serif" font-size="14.00" fill="#000000">github.com/u&#45;root/u&#45;bmc</text>
</a>
</g>
</g>
<!-- github.com/u&#45;root/u&#45;bmc&#45;&gt;github.com/mdlayher/genetlink -->
<g id="edge12" class="edge">
<title>github.com/u&#45;root/u&#45;bmc&#45;&gt;github.com/mdlayher/genetlink</title>
<path fill="none" stroke="#000000" d="M336.4183,-748.9622C362.7544,-753.1661 389.8583,-760.0186 413.7647,-771 497.3201,-809.3812 571.8385,-891.834 606.3056,-934.003"/>
<polygon fill="#000000" stroke="#000000" points="603.6529,-936.2891 612.6558,-941.8747 609.1011,-931.8939 603.6529,-936.2891"/>
</g>
<!-- github.com/mdlayher/kobject -->
<g id="node14" class="node">
<title>github.com/mdlayher/kobject</title>
<g id="a_node14"><a xlink:href="https://github.com/mdlayher/kobject" xlink:title="github.com/mdlayher/kobject">
<ellipse fill="none" stroke="#000000" cx="626.549" cy="-661" rx="147.5738" ry="18"/>
<text text-anchor="middle" x="626.549" y="-657.3" font-family="Times,serif" font-size="14.00" fill="#000000">github.com/mdlayher/kobject</text>
</a>
</g>
</g>
<!-- github.com/mdlayher/kobject&#45;&gt;github.com/mdlayher/netlink -->
<g id="edge13" class="edge">
<title>github.com/mdlayher/kobject&#45;&gt;github.com/mdlayher/netlink</title>
<path fill="none" stroke="#000000" d="M756.4719,-652.2773C775.6815,-647.5323 794.612,-640.7135 811.3333,-631 889.7272,-585.4608 946.9752,-489.9926 971.5769,-443.1275"/>
<polygon fill="#000000" stroke="#000000" points="974.7254,-444.6584 976.193,-434.1657 968.5024,-441.453 974.7254,-444.6584"/>
</g>
<!-- github.com/florianl/go&#45;conntrack -->
<g id="node15" class="node">
<title>github.com/florianl/go&#45;conntrack</title>
<g id="a_node15"><a xlink:href="https://github.com/florianl/go-conntrack" xlink:title="github.com/florianl/go&#45;conntrack">
<ellipse fill="none" stroke="#000000" cx="214.8824" cy="-524" rx="163.5712" ry="18"/>
<text text-anchor="middle" x="214.8824" y="-520.3" font-family="Times,serif" font-size="14.00" fill="#000000">github.com/florianl/go&#45;conntrack</text>
</a>
</g>
</g>
<!-- github.com/florianl/go&#45;conntrack&#45;&gt;github.com/mdlayher/netlink -->
<g id="edge14" class="edge">
<title>github.com/florianl/go&#45;conntrack&#45;&gt;github.com/mdlayher/netlink</title>
<path fill="none" stroke="#000000" d="M346.6806,-513.2813C467.9442,-502.4005 652.5041,-483.2638 811.3333,-456 844.7507,-450.2638 881.3825,-442.1044 912.3465,-434.6495"/>
<polygon fill="#000000" stroke="#000000" points="913.2986,-438.0201 922.1894,-432.2578 911.6457,-431.218 913.2986,-438.0201"/>
</g>
<!-- github.com/florianl/go&#45;nflog -->
<g id="node16" class="node">
<title>github.com/florianl/go&#45;nflog</title>
<g id="a_node16"><a xlink:href="https://github.com/florianl/go-nflog" xlink:title="github.com/florianl/go&#45;nflog">
<ellipse fill="none" stroke="#000000" cx="214.8824" cy="-470" rx="139.9756" ry="18"/>
<text text-anchor="middle" x="214.8824" y="-466.3" font-family="Times,serif" font-size="14.00" fill="#000000">github.com/florianl/go&#45;nflog</text>
</a>
</g>
</g>
<!-- github.com/florianl/go&#45;nflog&#45;&gt;github.com/mdlayher/netlink -->
<g id="edge15" class="edge">
<title>github.com/florianl/go&#45;nflog&#45;&gt;github.com/mdlayher/netlink</title>
<path fill="none" stroke="#000000" d="M340.587,-462.0649C461.3186,-454.3266 648.8364,-442.001 811.3333,-430 824.9208,-428.9965 839.1033,-427.9125 853.2504,-426.8075"/>
<polygon fill="#000000" stroke="#000000" points="853.8411,-430.2719 863.5365,-425.9999 853.2932,-423.2934 853.8411,-430.2719"/>
</g>
<!-- github.com/florianl/go&#45;nfqueue -->
<g id="node17" class="node">
<title>github.com/florianl/go&#45;nfqueue</title>
<g id="a_node17"><a xlink:href="https://github.com/florianl/go-nfqueue" xlink:title="github.com/florianl/go&#45;nfqueue">
<ellipse fill="none" stroke="#000000" cx="214.8824" cy="-416" rx="154.0727" ry="18"/>
<text text-anchor="middle" x="214.8824" y="-412.3" font-family="Times,serif" font-size="14.00" fill="#000000">github.com/florianl/go&#45;nfqueue</text>
</a>
</g>
</g>
<!-- github.com/florianl/go&#45;nfqueue&#45;&gt;github.com/mdlayher/netlink -->
<g id="edge16" class="edge">
<title>github.com/florianl/go&#45;nfqueue&#45;&gt;github.com/mdlayher/netlink</title>
<path fill="none" stroke="#000000" d="M369.3223,-416C502.826,-416 694.8873,-416 828.8617,-416"/>
<polygon fill="#000000" stroke="#000000" points="829.2123,-419.5001 839.2123,-416 829.2122,-412.5001 829.2123,-419.5001"/>
</g>
<!-- github.com/google/nftables -->
<g id="node18" class="node">
<title>github.com/google/nftables</title>
<g id="a_node18"><a xlink:href="https://github.com/google/nftables" xlink:title="github.com/google/nftables">
<ellipse fill="none" stroke="#000000" cx="214.8824" cy="-362" rx="137.5759" ry="18"/>
<text text-anchor="middle" x="214.8824" y="-358.3" font-family="Times,serif" font-size="14.00" fill="#000000">github.com/google/nftables</text>
</a>
</g>
</g>
<!-- github.com/google/nftables&#45;&gt;github.com/mdlayher/netlink -->
<g id="edge17" class="edge">
<title>github.com/google/nftables&#45;&gt;github.com/mdlayher/netlink</title>
<path fill="none" stroke="#000000" d="M336.4723,-370.5267C475.5358,-380.2787 702.6825,-396.2077 847.8976,-406.3911"/>
<polygon fill="#000000" stroke="#000000" points="847.9888,-409.906 858.2092,-407.1142 848.4785,-402.9231 847.9888,-409.906"/>
</g>
<!-- github.com/ti&#45;mo/netfilter -->
<g id="node19" class="node">
<title>github.com/ti&#45;mo/netfilter</title>
<g id="a_node19"><a xlink:href="https://github.com/ti-mo/netfilter" xlink:title="github.com/ti&#45;mo/netfilter">
<ellipse fill="none" stroke="#000000" cx="626.549" cy="-568" rx="131.077" ry="18"/>
<text text-anchor="middle" x="626.549" y="-564.3" font-family="Times,serif" font-size="14.00" fill="#000000">github.com/ti&#45;mo/netfilter</text>
</a>
</g>
</g>
<!-- github.com/ti&#45;mo/netfilter&#45;&gt;github.com/mdlayher/netlink -->
<g id="edge18" class="edge">
<title>github.com/ti&#45;mo/netfilter&#45;&gt;github.com/mdlayher/netlink</title>
<path fill="none" stroke="#000000" d="M714,-554.4878C745.4193,-547.9897 780.6534,-538.7605 811.3333,-526 865.2376,-503.5799 921.1532,-464.8791 954.4855,-439.8706"/>
<polygon fill="#000000" stroke="#000000" points="956.6043,-442.6565 962.4583,-433.8258 952.3751,-437.0785 956.6043,-442.6565"/>
</g>
<!-- github.com/ti&#45;mo/conntrack -->
<g id="node20" class="node">
<title>github.com/ti&#45;mo/conntrack</title>
<g id="a_node20"><a xlink:href="https://github.com/ti-mo/conntrack" xlink:title="github.com/ti&#45;mo/conntrack">
<ellipse fill="none" stroke="#000000" cx="214.8824" cy="-578" rx="140.2752" ry="18"/>
<text text-anchor="middle" x="214.8824" y="-574.3" font-family="Times,serif" font-size="14.00" fill="#000000">github.com/ti&#45;mo/conntrack</text>
</a>
</g>
</g>
<!-- github.com/ti&#45;mo/conntrack&#45;&gt;github.com/ti&#45;mo/netfilter -->
<g id="edge19" class="edge">
<title>github.com/ti&#45;mo/conntrack&#45;&gt;github.com/ti&#45;mo/netfilter</title>
<path fill="none" stroke="#000000" d="M352.8201,-574.6493C396.0667,-573.5988 443.8164,-572.4388 487.1623,-571.3859"/>
<polygon fill="#000000" stroke="#000000" points="487.2952,-574.8838 497.2072,-571.1419 487.1251,-567.8859 487.2952,-574.8838"/>
</g>
<!-- github.com/ema/qdisc -->
<g id="node21" class="node">
<title>github.com/ema/qdisc</title>
<g id="a_node21"><a xlink:href="https://github.com/ema/qdisc" xlink:title="github.com/ema/qdisc">
<ellipse fill="none" stroke="#000000" cx="626.549" cy="-279" rx="113.9803" ry="18"/>
<text text-anchor="middle" x="626.549" y="-275.3" font-family="Times,serif" font-size="14.00" fill="#000000">github.com/ema/qdisc</text>
</a>
</g>
</g>
<!-- github.com/ema/qdisc&#45;&gt;github.com/mdlayher/netlink -->
<g id="edge20" class="edge">
<title>github.com/ema/qdisc&#45;&gt;github.com/mdlayher/netlink</title>
<path fill="none" stroke="#000000" d="M689.0127,-294.0635C725.2327,-303.5013 771.4287,-316.7513 811.3333,-332 857.9849,-349.8269 909.2078,-375.3994 943.8349,-393.6379"/>
<polygon fill="#000000" stroke="#000000" points="942.2307,-396.7488 952.7052,-398.3409 945.5098,-390.5643 942.2307,-396.7488"/>
</g>
<!-- github.com/florianl/go&#45;tc -->
<g id="node22" class="node">
<title>github.com/florianl/go&#45;tc</title>
<g id="a_node22"><a xlink:href="https://github.com/florianl/go-tc" xlink:title="github.com/florianl/go&#45;tc">
<ellipse fill="none" stroke="#000000" cx="626.549" cy="-225" rx="126.1777" ry="18"/>
<text text-anchor="middle" x="626.549" y="-221.3" font-family="Times,serif" font-size="14.00" fill="#000000">github.com/florianl/go&#45;tc</text>
</a>
</g>
</g>
<!-- github.com/florianl/go&#45;tc&#45;&gt;github.com/mdlayher/netlink -->
<g id="edge21" class="edge">
<title>github.com/florianl/go&#45;tc&#45;&gt;github.com/mdlayher/netlink</title>
<path fill="none" stroke="#000000" d="M745.0941,-231.3806C767.837,-235.6056 790.9082,-242.1071 811.3333,-252 878.3483,-284.4586 936.7713,-352.0939 965.6735,-389.5721"/>
<polygon fill="#000000" stroke="#000000" points="963.2124,-392.119 972.0447,-397.9707 968.7893,-387.8883 963.2124,-392.119"/>
</g>
<!-- github.com/jsimonetti/rtnetlink -->
<g id="node23" class="node">
<title>github.com/jsimonetti/rtnetlink</title>
<g id="a_node23"><a xlink:href="https://github.com/jsimonetti/rtnetlink" xlink:title="github.com/jsimonetti/rtnetlink">
<ellipse fill="none" stroke="#000000" cx="626.549" cy="-171" rx="157.0724" ry="18"/>
<text text-anchor="middle" x="626.549" y="-167.3" font-family="Times,serif" font-size="14.00" fill="#000000">github.com/jsimonetti/rtnetlink</text>
</a>
</g>
</g>
<!-- github.com/jsimonetti/rtnetlink&#45;&gt;github.com/mdlayher/netlink -->
<g id="edge22" class="edge">
<title>github.com/jsimonetti/rtnetlink&#45;&gt;github.com/mdlayher/netlink</title>
<path fill="none" stroke="#000000" d="M765.639,-179.6188C781.6661,-183.9682 797.2792,-189.9212 811.3333,-198 890.7954,-243.6777 947.713,-341.1366 971.9363,-388.722"/>
<polygon fill="#000000" stroke="#000000" points="968.8765,-390.4291 976.4739,-397.8136 975.1397,-387.303 968.8765,-390.4291"/>
</g>
<!-- gitlab.com/mergetb/tech/rtnl -->
<g id="node24" class="node">
<title>gitlab.com/mergetb/tech/rtnl</title>
<g id="a_node24"><a xlink:href="https://gitlab.com/mergetb/tech/rtnl" xlink:title="gitlab.com/mergetb/tech/rtnl">
<ellipse fill="none" stroke="#000000" cx="626.549" cy="-117" rx="145.6742" ry="18"/>
<text text-anchor="middle" x="626.549" y="-113.3" font-family="Times,serif" font-size="14.00" fill="#000000">gitlab.com/mergetb/tech/rtnl</text>
</a>
</g>
</g>
<!-- gitlab.com/mergetb/tech/rtnl&#45;&gt;github.com/mdlayher/netlink -->
<g id="edge23" class="edge">
<title>gitlab.com/mergetb/tech/rtnl&#45;&gt;github.com/mdlayher/netlink</title>
<path fill="none" stroke="#000000" d="M763.153,-123.2776C780.2188,-127.9221 796.7671,-134.5826 811.3333,-144 903.6718,-203.6993 956.4605,-331.7545 976.0639,-388.2485"/>
<polygon fill="#000000" stroke="#000000" points="972.8198,-389.581 979.3401,-397.9318 979.4505,-387.3375 972.8198,-389.581"/>
</g>
<!-- github.com/SpComb/go&#45;onewire -->
<g id="node25" class="node">
<title>github.com/SpComb/go&#45;onewire</title>
<g id="a_node25"><a xlink:href="https://github.com/SpComb/go-onewire" xlink:title="github.com/SpComb/go&#45;onewire">
<ellipse fill="none" stroke="#000000" cx="626.549" cy="-34" rx="159.7717" ry="18"/>
<text text-anchor="middle" x="626.549" y="-30.3" font-family="Times,serif" font-size="14.00" fill="#000000">github.com/SpComb/go&#45;onewire</text>
</a>
</g>
</g>
<!-- github.com/SpComb/go&#45;onewire&#45;&gt;github.com/mdlayher/netlink -->
<g id="edge24" class="edge">
<title>github.com/SpComb/go&#45;onewire&#45;&gt;github.com/mdlayher/netlink</title>
<path fill="none" stroke="#000000" d="M728.99,-47.932C757.9311,-55.7505 787.8918,-67.954 811.3333,-87 911.9893,-168.7818 961.5453,-324.7117 978.232,-388.1322"/>
<polygon fill="#000000" stroke="#000000" points="974.8452,-389.0158 980.7164,-397.8352 981.6265,-387.2795 974.8452,-389.0158"/>
</g>
</g>
</svg>
