<?xml version="1.0" encoding="UTF-8" standalone="no"?>
<!DOCTYPE svg PUBLIC "-//W3C//DTD SVG 1.1//EN"
 "http://www.w3.org/Graphics/SVG/1.1/DTD/svg11.dtd">
<!-- Generated by graphviz version 2.40.1 (20161225.0304)
 -->
<!-- Title: %3 Pages: 1 -->
<svg width="928pt" height="1241pt"
 viewBox="0.00 0.00 928.33 1241.00" xmlns="http://www.w3.org/2000/svg" xmlns:xlink="http://www.w3.org/1999/xlink">
<g id="graph0" class="graph" transform="scale(1 1) rotate(0) translate(4 1237)">
<title>%3</title>
<polygon fill="#ffffff" stroke="transparent" points="-4,4 -4,-1237 924.3276,-1237 924.3276,4 -4,4"/>
<g id="clust1" class="cluster">
<title>cluster_netlink</title>
<polygon fill="none" stroke="#000000" points="667.5479,-363 667.5479,-415 912.3276,-415 912.3276,-363 667.5479,-363"/>
</g>
<g id="clust2" class="cluster">
<title>cluster_connector</title>
<polygon fill="none" stroke="#000000" points="354.6724,-1150 354.6724,-1225 647.5479,-1225 647.5479,-1150 354.6724,-1150"/>
<text text-anchor="middle" x="501.1102" y="-1209.8" font-family="Times,serif" font-size="14.00" fill="#000000">NETLINK_CONNECTOR</text>
</g>
<g id="clust4" class="cluster">
<title>cluster_generic</title>
<polygon fill="none" stroke="#000000" points="8,-635 8,-1142 631.2993,-1142 631.2993,-635 8,-635"/>
<text text-anchor="middle" x="319.6497" y="-1126.8" font-family="Times,serif" font-size="14.00" fill="#000000">NETLINK_GENERIC (genetlink)</text>
</g>
<g id="clust6" class="cluster">
<title>cluster_netfilter</title>
<polygon fill="none" stroke="#000000" points="35.2976,-336 35.2976,-627 612.451,-627 612.451,-336 35.2976,-336"/>
<text text-anchor="middle" x="323.8743" y="-611.8" font-family="Times,serif" font-size="14.00" fill="#000000">NETLINK_NETFILTER (nfnetlink)</text>
</g>
<g id="clust9" class="cluster">
<title>cluster_route</title>
<polygon fill="none" stroke="#000000" points="371.5709,-91 371.5709,-328 630.6494,-328 630.6494,-91 371.5709,-91"/>
<text text-anchor="middle" x="501.1102" y="-312.8" font-family="Times,serif" font-size="14.00" fill="#000000">NETLINK_ROUTE (rtnetlink)</text>
</g>
<g id="clust11" class="cluster">
<title>cluster_w1</title>
<polygon fill="none" stroke="#000000" points="365.7215,-8 365.7215,-83 636.4988,-83 636.4988,-8 365.7215,-8"/>
<text text-anchor="middle" x="501.1102" y="-67.8" font-family="Times,serif" font-size="14.00" fill="#000000">NETLINK_W1</text>
</g>
<!-- github.com/mdlayher/netlink -->
<g id="node1" class="node">
<title>github.com/mdlayher/netlink</title>
<g id="a_node1"><a xlink:href="https://github.com/mdlayher/netlink" xlink:title="github.com/mdlayher/netlink">
<ellipse fill="none" stroke="#000000" cx="789.9377" cy="-389" rx="114.2798" ry="18"/>
<text text-anchor="middle" x="789.9377" y="-385.3" font-family="Times,serif" font-size="14.00" fill="#000000">github.com/mdlayher/netlink</text>
</a>
</g>
</g>
<!-- github.com/fearful&#45;symmetry/garlic -->
<g id="node2" class="node">
<title>github.com/fearful&#45;symmetry/garlic</title>
<g id="a_node2"><a xlink:href="https://github.com/fearful-symmetry/garlic" xlink:title="github.com/fearful&#45;symmetry/garlic">
<ellipse fill="none" stroke="#000000" cx="501.1102" cy="-1176" rx="138.3755" ry="18"/>
<text text-anchor="middle" x="501.1102" y="-1172.3" font-family="Times,serif" font-size="14.00" fill="#000000">github.com/fearful&#45;symmetry/garlic</text>
</a>
</g>
</g>
<!-- github.com/fearful&#45;symmetry/garlic&#45;&gt;github.com/mdlayher/netlink -->
<g id="edge1" class="edge">
<title>github.com/fearful&#45;symmetry/garlic&#45;&gt;github.com/mdlayher/netlink</title>
<path fill="none" stroke="#000000" d="M617.4468,-1166.0464C628.6437,-1161.2068 638.9931,-1154.694 647.5479,-1146 752.3645,-1039.4773 782.6932,-541.9406 788.704,-417.3463"/>
<polygon fill="#000000" stroke="#000000" points="792.2118,-417.258 789.1831,-407.1053 785.2195,-416.9308 792.2118,-417.258"/>
</g>
<!-- github.com/mdlayher/genetlink -->
<g id="node3" class="node">
<title>github.com/mdlayher/genetlink</title>
<g id="a_node3"><a xlink:href="https://github.com/mdlayher/genetlink" xlink:title="github.com/mdlayher/genetlink">
<ellipse fill="none" stroke="#000000" cx="501.1102" cy="-850" rx="122.3786" ry="18"/>
<text text-anchor="middle" x="501.1102" y="-846.3" font-family="Times,serif" font-size="14.00" fill="#000000">github.com/mdlayher/genetlink</text>
</a>
</g>
</g>
<!-- github.com/mdlayher/genetlink&#45;&gt;github.com/mdlayher/netlink -->
<g id="edge2" class="edge">
<title>github.com/mdlayher/genetlink&#45;&gt;github.com/mdlayher/netlink</title>
<path fill="none" stroke="#000000" d="M513.6168,-832.0608C539.3658,-794.963 599.8829,-706.9236 647.5479,-631 695.8224,-554.1053 749.2234,-461.0031 774.7385,-415.9791"/>
<polygon fill="#000000" stroke="#000000" points="777.8702,-417.5514 779.748,-407.1243 771.7776,-414.1046 777.8702,-417.5514"/>
</g>
<!-- github.com/digitalocean/go&#45;openvswitch -->
<g id="node4" class="node">
<title>github.com/digitalocean/go&#45;openvswitch</title>
<g id="a_node4"><a xlink:href="https://github.com/digitalocean/go-openvswitch" xlink:title="github.com/digitalocean/go&#45;openvswitch">
<ellipse fill="none" stroke="#000000" cx="171.3362" cy="-1093" rx="155.1726" ry="18"/>
<text text-anchor="middle" x="171.3362" y="-1089.3" font-family="Times,serif" font-size="14.00" fill="#000000">github.com/digitalocean/go&#45;openvswitch</text>
</a>
</g>
</g>
<!-- github.com/digitalocean/go&#45;openvswitch&#45;&gt;github.com/mdlayher/genetlink -->
<g id="edge3" class="edge">
<title>github.com/digitalocean/go&#45;openvswitch&#45;&gt;github.com/mdlayher/genetlink</title>
<path fill="none" stroke="#000000" d="M290.7153,-1081.44C303.3311,-1077.5615 315.5839,-1072.5234 326.6724,-1066 405.1851,-1019.8109 462.8401,-924.1074 487.6467,-877.1636"/>
<polygon fill="#000000" stroke="#000000" points="490.8049,-878.6762 492.3021,-868.1877 484.591,-875.4533 490.8049,-878.6762"/>
</g>
<!-- github.com/mdlayher/devlink -->
<g id="node5" class="node">
<title>github.com/mdlayher/devlink</title>
<g id="a_node5"><a xlink:href="https://github.com/mdlayher/devlink" xlink:title="github.com/mdlayher/devlink">
<ellipse fill="none" stroke="#000000" cx="171.3362" cy="-1039" rx="116.1796" ry="18"/>
<text text-anchor="middle" x="171.3362" y="-1035.3" font-family="Times,serif" font-size="14.00" fill="#000000">github.com/mdlayher/devlink</text>
</a>
</g>
</g>
<!-- github.com/mdlayher/devlink&#45;&gt;github.com/mdlayher/genetlink -->
<g id="edge4" class="edge">
<title>github.com/mdlayher/devlink&#45;&gt;github.com/mdlayher/genetlink</title>
<path fill="none" stroke="#000000" d="M272.6341,-1030.0798C291.2192,-1026.0484 309.9962,-1020.2679 326.6724,-1012 393.0052,-979.1131 451.9199,-912.9264 481.3174,-876.1473"/>
<polygon fill="#000000" stroke="#000000" points="484.3731,-877.9238 487.8072,-867.901 478.8723,-873.5947 484.3731,-877.9238"/>
</g>
<!-- github.com/mdlayher/quota -->
<g id="node6" class="node">
<title>github.com/mdlayher/quota</title>
<g id="a_node6"><a xlink:href="https://github.com/mdlayher/quota" xlink:title="github.com/mdlayher/quota">
<ellipse fill="none" stroke="#000000" cx="171.3362" cy="-985" rx="109.381" ry="18"/>
<text text-anchor="middle" x="171.3362" y="-981.3" font-family="Times,serif" font-size="14.00" fill="#000000">github.com/mdlayher/quota</text>
</a>
</g>
</g>
<!-- github.com/mdlayher/quota&#45;&gt;github.com/mdlayher/genetlink -->
<g id="edge5" class="edge">
<title>github.com/mdlayher/quota&#45;&gt;github.com/mdlayher/genetlink</title>
<path fill="none" stroke="#000000" d="M262.844,-975.07C284.2136,-971.1256 306.587,-965.6344 326.6724,-958 381.1537,-937.2918 437.2562,-898.9316 470.6483,-873.946"/>
<polygon fill="#000000" stroke="#000000" points="472.7732,-876.7272 478.6337,-867.9008 468.5481,-871.1461 472.7732,-876.7272"/>
</g>
<!-- github.com/mdlayher/taskstats -->
<g id="node7" class="node">
<title>github.com/mdlayher/taskstats</title>
<g id="a_node7"><a xlink:href="https://github.com/mdlayher/taskstats" xlink:title="github.com/mdlayher/taskstats">
<ellipse fill="none" stroke="#000000" cx="171.3362" cy="-931" rx="119.6788" ry="18"/>
<text text-anchor="middle" x="171.3362" y="-927.3" font-family="Times,serif" font-size="14.00" fill="#000000">github.com/mdlayher/taskstats</text>
</a>
</g>
</g>
<!-- github.com/mdlayher/taskstats&#45;&gt;github.com/mdlayher/genetlink -->
<g id="edge6" class="edge">
<title>github.com/mdlayher/taskstats&#45;&gt;github.com/mdlayher/genetlink</title>
<path fill="none" stroke="#000000" d="M256.3905,-918.2396C279.3274,-914.2489 304.0516,-909.4436 326.6724,-904 366.0871,-894.5151 409.6506,-881.0319 443.3834,-869.9116"/>
<polygon fill="#000000" stroke="#000000" points="444.6851,-873.1673 453.0721,-866.6936 442.4786,-866.5241 444.6851,-873.1673"/>
</g>
<!-- github.com/mdlayher/wifi -->
<g id="node8" class="node">
<title>github.com/mdlayher/wifi</title>
<g id="a_node8"><a xlink:href="https://github.com/mdlayher/wifi" xlink:title="github.com/mdlayher/wifi">
<ellipse fill="none" stroke="#000000" cx="171.3362" cy="-877" rx="103.9815" ry="18"/>
<text text-anchor="middle" x="171.3362" y="-873.3" font-family="Times,serif" font-size="14.00" fill="#000000">github.com/mdlayher/wifi</text>
</a>
</g>
</g>
<!-- github.com/mdlayher/wifi&#45;&gt;github.com/mdlayher/genetlink -->
<g id="edge7" class="edge">
<title>github.com/mdlayher/wifi&#45;&gt;github.com/mdlayher/genetlink</title>
<path fill="none" stroke="#000000" d="M265.3949,-869.299C302.2689,-866.28 344.9779,-862.7832 383.8298,-859.6022"/>
<polygon fill="#000000" stroke="#000000" points="384.4651,-863.062 394.1461,-858.7576 383.8938,-856.0854 384.4651,-863.062"/>
</g>
<!-- github.com/mdlayher/wireguardctrl -->
<g id="node9" class="node">
<title>github.com/mdlayher/wireguardctrl</title>
<g id="a_node9"><a xlink:href="https://github.com/mdlayher/wireguardctrl" xlink:title="github.com/mdlayher/wireguardctrl">
<ellipse fill="none" stroke="#000000" cx="171.3362" cy="-823" rx="137.2758" ry="18"/>
<text text-anchor="middle" x="171.3362" y="-819.3" font-family="Times,serif" font-size="14.00" fill="#000000">github.com/mdlayher/wireguardctrl</text>
</a>
</g>
</g>
<!-- github.com/mdlayher/wireguardctrl&#45;&gt;github.com/mdlayher/genetlink -->
<g id="edge8" class="edge">
<title>github.com/mdlayher/wireguardctrl&#45;&gt;github.com/mdlayher/genetlink</title>
<path fill="none" stroke="#000000" d="M288.0663,-832.5572C319.2473,-835.1101 352.9468,-837.8692 384.1407,-840.4232"/>
<polygon fill="#000000" stroke="#000000" points="383.9219,-843.9169 394.1741,-841.2447 384.4931,-836.9403 383.9219,-843.9169"/>
</g>
<!-- github.com/Merovius/nbd -->
<g id="node10" class="node">
<title>github.com/Merovius/nbd</title>
<g id="a_node10"><a xlink:href="https://github.com/Merovius/nbd" xlink:title="github.com/Merovius/nbd">
<ellipse fill="none" stroke="#000000" cx="171.3362" cy="-769" rx="103.1819" ry="18"/>
<text text-anchor="middle" x="171.3362" y="-765.3" font-family="Times,serif" font-size="14.00" fill="#000000">github.com/Merovius/nbd</text>
</a>
</g>
</g>
<!-- github.com/Merovius/nbd&#45;&gt;github.com/mdlayher/genetlink -->
<g id="edge9" class="edge">
<title>github.com/Merovius/nbd&#45;&gt;github.com/mdlayher/genetlink</title>
<path fill="none" stroke="#000000" d="M250.3633,-780.7231C274.948,-784.9081 302.0557,-790.0761 326.6724,-796 366.0871,-805.4849 409.6506,-818.9681 443.3834,-830.0884"/>
<polygon fill="#000000" stroke="#000000" points="442.4786,-833.4759 453.0721,-833.3064 444.6851,-826.8327 442.4786,-833.4759"/>
</g>
<!-- github.com/rtr7/router7 -->
<g id="node11" class="node">
<title>github.com/rtr7/router7</title>
<g id="a_node11"><a xlink:href="https://github.com/rtr7/router7" xlink:title="github.com/rtr7/router7">
<ellipse fill="none" stroke="#000000" cx="171.3362" cy="-715" rx="94.4839" ry="18"/>
<text text-anchor="middle" x="171.3362" y="-711.3" font-family="Times,serif" font-size="14.00" fill="#000000">github.com/rtr7/router7</text>
</a>
</g>
</g>
<!-- github.com/rtr7/router7&#45;&gt;github.com/mdlayher/genetlink -->
<g id="edge10" class="edge">
<title>github.com/rtr7/router7&#45;&gt;github.com/mdlayher/genetlink</title>
<path fill="none" stroke="#000000" d="M254.7329,-723.4966C278.4763,-727.5102 304.0284,-733.393 326.6724,-742 381.1537,-762.7082 437.2562,-801.0684 470.6483,-826.054"/>
<polygon fill="#000000" stroke="#000000" points="468.5481,-828.8539 478.6337,-832.0992 472.7732,-823.2728 468.5481,-828.8539"/>
</g>
<!-- github.com/u&#45;root/u&#45;bmc -->
<g id="node12" class="node">
<title>github.com/u&#45;root/u&#45;bmc</title>
<g id="a_node12"><a xlink:href="https://github.com/u-root/u-bmc" xlink:title="github.com/u&#45;root/u&#45;bmc">
<ellipse fill="none" stroke="#000000" cx="171.3362" cy="-661" rx="100.9827" ry="18"/>
<text text-anchor="middle" x="171.3362" y="-657.3" font-family="Times,serif" font-size="14.00" fill="#000000">github.com/u&#45;root/u&#45;bmc</text>
</a>
</g>
</g>
<!-- github.com/u&#45;root/u&#45;bmc&#45;&gt;github.com/mdlayher/genetlink -->
<g id="edge11" class="edge">
<title>github.com/u&#45;root/u&#45;bmc&#45;&gt;github.com/mdlayher/genetlink</title>
<path fill="none" stroke="#000000" d="M264.047,-668.1752C285.3704,-672.2257 307.4212,-678.4555 326.6724,-688 393.0052,-720.8869 451.9199,-787.0736 481.3174,-823.8527"/>
<polygon fill="#000000" stroke="#000000" points="478.8723,-826.4053 487.8072,-832.099 484.3731,-822.0762 478.8723,-826.4053"/>
</g>
<!-- github.com/florianl/go&#45;conntrack -->
<g id="node13" class="node">
<title>github.com/florianl/go&#45;conntrack</title>
<g id="a_node13"><a xlink:href="https://github.com/florianl/go-conntrack" xlink:title="github.com/florianl/go&#45;conntrack">
<ellipse fill="none" stroke="#000000" cx="171.3362" cy="-524" rx="128.0773" ry="18"/>
<text text-anchor="middle" x="171.3362" y="-520.3" font-family="Times,serif" font-size="14.00" fill="#000000">github.com/florianl/go&#45;conntrack</text>
</a>
</g>
</g>
<!-- github.com/florianl/go&#45;conntrack&#45;&gt;github.com/mdlayher/netlink -->
<g id="edge12" class="edge">
<title>github.com/florianl/go&#45;conntrack&#45;&gt;github.com/mdlayher/netlink</title>
<path fill="none" stroke="#000000" d="M275.8643,-513.5315C373.3074,-502.2156 522.0483,-480.9442 647.5479,-446 680.7053,-436.7676 716.6806,-422.3266 744.1748,-410.2906"/>
<polygon fill="#000000" stroke="#000000" points="745.803,-413.3974 753.5276,-406.1461 742.967,-406.9976 745.803,-413.3974"/>
</g>
<!-- github.com/florianl/go&#45;nflog -->
<g id="node14" class="node">
<title>github.com/florianl/go&#45;nflog</title>
<g id="a_node14"><a xlink:href="https://github.com/florianl/go-nflog" xlink:title="github.com/florianl/go&#45;nflog">
<ellipse fill="none" stroke="#000000" cx="171.3362" cy="-470" rx="112.3801" ry="18"/>
<text text-anchor="middle" x="171.3362" y="-466.3" font-family="Times,serif" font-size="14.00" fill="#000000">github.com/florianl/go&#45;nflog</text>
</a>
</g>
</g>
<!-- github.com/florianl/go&#45;nflog&#45;&gt;github.com/mdlayher/netlink -->
<g id="edge13" class="edge">
<title>github.com/florianl/go&#45;nflog&#45;&gt;github.com/mdlayher/netlink</title>
<path fill="none" stroke="#000000" d="M267.8059,-460.7337C364.181,-451.0356 516.4566,-434.5171 647.5479,-415 667.216,-412.0718 688.3299,-408.4696 708.1165,-404.8899"/>
<polygon fill="#000000" stroke="#000000" points="708.8102,-408.3212 718.0183,-403.0808 707.5521,-401.4352 708.8102,-408.3212"/>
</g>
<!-- github.com/florianl/go&#45;nfqueue -->
<g id="node15" class="node">
<title>github.com/florianl/go&#45;nfqueue</title>
<g id="a_node15"><a xlink:href="https://github.com/florianl/go-nfqueue" xlink:title="github.com/florianl/go&#45;nfqueue">
<ellipse fill="none" stroke="#000000" cx="171.3362" cy="-416" rx="122.3786" ry="18"/>
<text text-anchor="middle" x="171.3362" y="-412.3" font-family="Times,serif" font-size="14.00" fill="#000000">github.com/florianl/go&#45;nfqueue</text>
</a>
</g>
</g>
<!-- github.com/florianl/go&#45;nfqueue&#45;&gt;github.com/mdlayher/netlink -->
<g id="edge14" class="edge">
<title>github.com/florianl/go&#45;nfqueue&#45;&gt;github.com/mdlayher/netlink</title>
<path fill="none" stroke="#000000" d="M288.7819,-410.8739C397.8587,-406.113 559.5469,-399.0558 669.5556,-394.2543"/>
<polygon fill="#000000" stroke="#000000" points="669.8664,-397.7442 679.7043,-393.8113 669.5611,-390.7508 669.8664,-397.7442"/>
</g>
<!-- github.com/google/nftables -->
<g id="node16" class="node">
<title>github.com/google/nftables</title>
<g id="a_node16"><a xlink:href="https://github.com/google/nftables" xlink:title="github.com/google/nftables">
<ellipse fill="none" stroke="#000000" cx="171.3362" cy="-362" rx="107.781" ry="18"/>
<text text-anchor="middle" x="171.3362" y="-358.3" font-family="Times,serif" font-size="14.00" fill="#000000">github.com/google/nftables</text>
</a>
</g>
</g>
<!-- github.com/google/nftables&#45;&gt;github.com/mdlayher/netlink -->
<g id="edge15" class="edge">
<title>github.com/google/nftables&#45;&gt;github.com/mdlayher/netlink</title>
<path fill="none" stroke="#000000" d="M275.9236,-366.5649C384.779,-371.3161 555.0351,-378.7472 669.4533,-383.7412"/>
<polygon fill="#000000" stroke="#000000" points="669.5141,-387.2471 679.6573,-384.1866 669.8194,-380.2538 669.5141,-387.2471"/>
</g>
<!-- github.com/ti&#45;mo/netfilter -->
<g id="node17" class="node">
<title>github.com/ti&#45;mo/netfilter</title>
<g id="a_node17"><a xlink:href="https://github.com/ti-mo/netfilter" xlink:title="github.com/ti&#45;mo/netfilter">
<ellipse fill="none" stroke="#000000" cx="501.1102" cy="-571" rx="103.1819" ry="18"/>
<text text-anchor="middle" x="501.1102" y="-567.3" font-family="Times,serif" font-size="14.00" fill="#000000">github.com/ti&#45;mo/netfilter</text>
</a>
</g>
</g>
<!-- github.com/ti&#45;mo/netfilter&#45;&gt;github.com/mdlayher/netlink -->
<g id="edge16" class="edge">
<title>github.com/ti&#45;mo/netfilter&#45;&gt;github.com/mdlayher/netlink</title>
<path fill="none" stroke="#000000" d="M571.3791,-557.7616C596.511,-551.1557 624.3364,-541.5838 647.5479,-528 698.4562,-498.2074 744.7971,-446.3234 770.0172,-415.0691"/>
<polygon fill="#000000" stroke="#000000" points="772.7777,-417.221 776.2606,-407.215 767.2981,-412.8651 772.7777,-417.221"/>
</g>
<!-- github.com/ti&#45;mo/conntrack -->
<g id="node18" class="node">
<title>github.com/ti&#45;mo/conntrack</title>
<g id="a_node18"><a xlink:href="https://github.com/ti-mo/conntrack" xlink:title="github.com/ti&#45;mo/conntrack">
<ellipse fill="none" stroke="#000000" cx="171.3362" cy="-578" rx="110.4804" ry="18"/>
<text text-anchor="middle" x="171.3362" y="-574.3" font-family="Times,serif" font-size="14.00" fill="#000000">github.com/ti&#45;mo/conntrack</text>
</a>
</g>
</g>
<!-- github.com/ti&#45;mo/conntrack&#45;&gt;github.com/ti&#45;mo/netfilter -->
<g id="edge17" class="edge">
<title>github.com/ti&#45;mo/conntrack&#45;&gt;github.com/ti&#45;mo/netfilter</title>
<path fill="none" stroke="#000000" d="M281.1462,-575.6691C315.5937,-574.9379 353.6647,-574.1298 388.3151,-573.3943"/>
<polygon fill="#000000" stroke="#000000" points="388.5462,-576.8902 398.4696,-573.1787 388.3975,-569.8918 388.5462,-576.8902"/>
</g>
<!-- github.com/ema/qdisc -->
<g id="node19" class="node">
<title>github.com/ema/qdisc</title>
<g id="a_node19"><a xlink:href="https://github.com/ema/qdisc" xlink:title="github.com/ema/qdisc">
<ellipse fill="none" stroke="#000000" cx="501.1102" cy="-279" rx="89.8845" ry="18"/>
<text text-anchor="middle" x="501.1102" y="-275.3" font-family="Times,serif" font-size="14.00" fill="#000000">github.com/ema/qdisc</text>
</a>
</g>
</g>
<!-- github.com/ema/qdisc&#45;&gt;github.com/mdlayher/netlink -->
<g id="edge18" class="edge">
<title>github.com/ema/qdisc&#45;&gt;github.com/mdlayher/netlink</title>
<path fill="none" stroke="#000000" d="M545.7928,-294.7341C574.8695,-305.0805 613.5658,-319.053 647.5479,-332 678.2645,-343.7029 712.4667,-357.3733 739.6505,-368.3924"/>
<polygon fill="#000000" stroke="#000000" points="738.3738,-371.6515 748.9558,-372.1719 741.008,-365.166 738.3738,-371.6515"/>
</g>
<!-- github.com/florianl/go&#45;tc -->
<g id="node20" class="node">
<title>github.com/florianl/go&#45;tc</title>
<g id="a_node20"><a xlink:href="https://github.com/florianl/go-tc" xlink:title="github.com/florianl/go&#45;tc">
<ellipse fill="none" stroke="#000000" cx="501.1102" cy="-225" rx="100.1823" ry="18"/>
<text text-anchor="middle" x="501.1102" y="-221.3" font-family="Times,serif" font-size="14.00" fill="#000000">github.com/florianl/go&#45;tc</text>
</a>
</g>
</g>
<!-- github.com/florianl/go&#45;tc&#45;&gt;github.com/mdlayher/netlink -->
<g id="edge19" class="edge">
<title>github.com/florianl/go&#45;tc&#45;&gt;github.com/mdlayher/netlink</title>
<path fill="none" stroke="#000000" d="M590.9526,-233.0473C610.3246,-237.0831 630.1836,-243.0872 647.5479,-252 699.9371,-278.8907 746.0907,-331.3183 770.8153,-362.9444"/>
<polygon fill="#000000" stroke="#000000" points="768.0522,-365.0928 776.9194,-370.8914 773.6036,-360.8288 768.0522,-365.0928"/>
</g>
<!-- github.com/jsimonetti/rtnetlink -->
<g id="node21" class="node">
<title>github.com/jsimonetti/rtnetlink</title>
<g id="a_node21"><a xlink:href="https://github.com/jsimonetti/rtnetlink" xlink:title="github.com/jsimonetti/rtnetlink">
<ellipse fill="none" stroke="#000000" cx="501.1102" cy="-171" rx="121.5784" ry="18"/>
<text text-anchor="middle" x="501.1102" y="-167.3" font-family="Times,serif" font-size="14.00" fill="#000000">github.com/jsimonetti/rtnetlink</text>
</a>
</g>
</g>
<!-- github.com/jsimonetti/rtnetlink&#45;&gt;github.com/mdlayher/netlink -->
<g id="edge20" class="edge">
<title>github.com/jsimonetti/rtnetlink&#45;&gt;github.com/mdlayher/netlink</title>
<path fill="none" stroke="#000000" d="M605.552,-180.2622C620.334,-184.3675 634.8144,-190.083 647.5479,-198 712.2318,-238.2171 757.5371,-319.4108 777.8719,-361.8163"/>
<polygon fill="#000000" stroke="#000000" points="774.7542,-363.4118 782.1666,-370.982 781.0929,-360.4417 774.7542,-363.4118"/>
</g>
<!-- gitlab.com/mergetb/tech/rtnl -->
<g id="node22" class="node">
<title>gitlab.com/mergetb/tech/rtnl</title>
<g id="a_node22"><a xlink:href="https://gitlab.com/mergetb/tech/rtnl" xlink:title="gitlab.com/mergetb/tech/rtnl">
<ellipse fill="none" stroke="#000000" cx="501.1102" cy="-117" rx="112.3801" ry="18"/>
<text text-anchor="middle" x="501.1102" y="-113.3" font-family="Times,serif" font-size="14.00" fill="#000000">gitlab.com/mergetb/tech/rtnl</text>
</a>
</g>
</g>
<!-- gitlab.com/mergetb/tech/rtnl&#45;&gt;github.com/mdlayher/netlink -->
<g id="edge21" class="edge">
<title>gitlab.com/mergetb/tech/rtnl&#45;&gt;github.com/mdlayher/netlink</title>
<path fill="none" stroke="#000000" d="M604.1207,-124.332C619.5882,-128.639 634.6525,-134.9231 647.5479,-144 724.8917,-198.4412 766.3728,-309.2908 782.2353,-361.1194"/>
<polygon fill="#000000" stroke="#000000" points="778.9529,-362.3615 785.1523,-370.9532 785.6639,-360.3707 778.9529,-362.3615"/>
</g>
<!-- github.com/SpComb/go&#45;onewire -->
<g id="node23" class="node">
<title>github.com/SpComb/go&#45;onewire</title>
<g id="a_node23"><a xlink:href="https://github.com/SpComb/go-onewire" xlink:title="github.com/SpComb/go&#45;onewire">
<ellipse fill="none" stroke="#000000" cx="501.1102" cy="-34" rx="127.2775" ry="18"/>
<text text-anchor="middle" x="501.1102" y="-30.3" font-family="Times,serif" font-size="14.00" fill="#000000">github.com/SpComb/go&#45;onewire</text>
</a>
</g>
</g>
<!-- github.com/SpComb/go&#45;onewire&#45;&gt;github.com/mdlayher/netlink -->
<g id="edge22" class="edge">
<title>github.com/SpComb/go&#45;onewire&#45;&gt;github.com/mdlayher/netlink</title>
<path fill="none" stroke="#000000" d="M575.3257,-48.6564C600.5743,-56.6042 627.4589,-68.7034 647.5479,-87 732.0692,-163.9803 770.8712,-301.5939 784.2331,-360.7259"/>
<polygon fill="#000000" stroke="#000000" points="780.8847,-361.7983 786.4373,-370.8215 787.7236,-360.3051 780.8847,-361.7983"/>
</g>
</g>
</svg>
